# xmcd
#
# Track frame offsets:
# 150
# 21003
# 42499
# 63833
# 78979
# 93293
# 118106
# 133914
# 149905
# 165851
# 181288
# 200139
# 218375
#
# Disc length: 3134 seconds
#
#
# Revision: 0
# Processed by: cddbd v1.5.1PL2 Copyright (c) Steve Scherf et al.
# Submitted via: FreeRIP 2.942 
#
DISCID=b60c3c0d
DTITLE=Lucinda Williams - Car Wheels On a Gravel Road
DYEAR=1900
DGENRE=Country
TTITLE0=Right In Time
TTITLE1=Car Wheels On a Gravel Road
TTITLE2=2 Kool 2 Be 4-Gotten
TTITLE3=Drunken Angel
TTITLE4=Concrete and Barbed Wire
TTITLE5=Lake Charles
TTITLE6=Can't Let Go
TTITLE7=I Lost It
TTITLE8=Metal Firecracker
TTITLE9=Greenville
TTITLE10=Still I Long for Your Kiss
TTITLE11=Joy
TTITLE12=Jackson
EXTD=
EXTT0=
EXTT1=
EXTT2=
EXTT3=
EXTT4=
EXTT5=
EXTT6=
EXTT7=
EXTT8=
EXTT9=
EXTT10=
EXTT11=
EXTT12=
PLAYORDER=
